Coordinates
version=1
nRows=24
nColumns=24
inDegrees=yes

Units are S.I. units (second, meters, Newtons, ...)
Angles are in degrees.

endheader
time	pelvis_tilt	pelvis_list	pelvis_rotation	pelvis_tx	pelvis_ty	pelvis_tz	hip_flexion_r	hip_adduction_r	hip_rotation_r	knee_angle_r	ankle_angle_r	subtalar_angle_r	mtp_angle_r	hip_flexion_l	hip_adduction_l	hip_rotation_l	knee_angle_l	ankle_angle_l	subtalar_angle_l	mtp_angle_l	lumbar_extension	lumbar_bending	lumbar_rotation
      1.74000000	      8.84538667	     -6.85969304	      7.94506924	     -0.01138338	      1.00891050	     -0.00310171	     13.44537677	     -2.21341707	    -25.76067204	    -27.45124553	     -1.36243415	      3.02659872	     14.46244869	     -8.37596238	     -4.96329873	    -14.95249177	    -18.88110350	      6.80120719	     -6.50753696	      6.15069867	    -15.79277833	     18.28764221	     34.65362893
      1.74500000	      8.85013921	     -6.67764874	      8.28407334	     -0.00522078	      1.00784847	     -0.00320400	     13.64211508	     -2.38866793	    -26.40639423	    -26.05732559	     -1.33893938	      3.54441609	     12.39477503	     -8.63673776	     -4.91430202	    -14.69370982	    -19.09554212	      6.95049059	     -6.51216110	      7.30198695	    -15.70982138	     18.17337441	     34.41537250
      1.75000000	      8.81729218	     -6.49627461	      8.62234853	      0.00093787	      1.00667261	     -0.00325942	     13.86914742	     -2.56216693	    -27.06085642	    -24.64302918	     -1.53320313	      3.95976629	     12.27967093	     -8.84596317	     -4.87597537	    -14.45281041	    -19.35682127	      7.31564673	     -6.32895710	      7.39428345	    -15.58440645	     18.04762425	     34.13951902
      1.75500000	      8.78279779	     -6.28420097	      8.95373330	      0.00709986	      1.00545211	     -0.00332866	     14.09025496	     -2.77580935	    -27.75035704	    -23.26392996	     -1.67732940	      4.54267109	     12.05654806	     -9.06942955	     -4.79977449	    -14.19838812	    -19.59687132	      7.66436229	     -6.21130578	      7.56088081	    -15.46455932	     17.88931489	     33.86053537
      1.76000000	      8.73995432	     -6.08147792	      9.28244521	      0.01324188	      1.00421340	     -0.00336521	     14.31327298	     -2.96991643	    -28.43180605	    -21.90335027	     -1.63016902	      5.26356603	     10.16432139	     -9.28298442	     -4.73833789	    -13.95196885	    -19.82679310	      7.83768597	     -6.18430484	      8.59226252	    -15.34515798	     17.74541997	     33.62301930
      1.76500000	      8.67475583	     -5.88423936	      9.60069417	      0.01940774	      1.00289662	     -0.00334859	     14.54906253	     -3.15182606	    -29.11902078	    -20.52576728	     -1.79125874	      5.92345777	     10.06923336	     -9.47757704	     -4.68902975	    -13.73276558	    -20.07046102	      8.18908361	     -5.98453121	      8.68805350	    -15.20518100	     17.59753318	     33.38332027
      1.77000000	      8.60522025	     -5.67633351	      9.91438889	      0.02557501	      1.00155757	     -0.00331807	     14.78085613	     -3.34279545	    -29.82031729	    -19.16827618	     -1.93600064	      6.68252695	      9.92031693	     -9.67550999	     -4.62826040	    -13.51204720	    -20.30360362	      8.50773026	     -5.82572720	      8.82852722	    -15.06640478	     17.43667826	     33.14740866
      1.77500000	      8.52329284	     -5.46183493	     10.21955447	      0.03173998	      1.00017193	     -0.00326866	     15.02323706	     -3.54009389	    -30.52432118	    -17.84579185	     -2.03202661	      7.52953249	      9.70136760	     -9.86825465	     -4.55977634	    -13.29603684	    -20.52785064	      8.81943491	     -5.67641708	      9.02591612	    -14.92311972	     17.26801559	     32.92016127
      1.78000000	      8.43189463	     -5.24207179	     10.50310162	      0.03788635	      0.99875590	     -0.00318495	     15.28098794	     -3.73777950	    -31.19481155	    -16.59384230	     -1.81003191	      8.53091872	      7.18409441	    -10.06062275	     -4.48046029	    -13.09757992	    -20.72807857	      8.95002134	     -5.67898753	     10.48421786	    -14.78343949	     17.08785483	     32.70631229
      1.78500000	      8.32015121	     -5.03585333	     10.77852788	      0.04407402	      0.99730403	     -0.00305239	     15.54575962	     -3.91298378	    -31.85886208	    -15.31960721	     -1.90979903	      9.44875758	      7.08972044	    -10.23504235	     -4.42245358	    -12.92704310	    -20.94312480	      9.25573180	     -5.47426126	     10.56022202	    -14.62346931	     16.91974306	     32.52816178
      1.79000000	      8.20781358	     -4.82309148	     11.05184930	      0.05025052	      0.99582943	     -0.00289726	     15.80884785	     -4.09310635	    -32.51313703	    -14.09097406	     -1.98450828	     10.40893831	      6.92862023	    -10.41516066	     -4.35863203	    -12.75354344	    -21.14836651	      9.55366677	     -5.30735110	     10.69088676	    -14.47178249	     16.74010861	     32.33706000
      1.79500000	      8.08138108	     -4.60479044	     11.31476644	      0.05642568	      0.99434178	     -0.00275088	     16.08691941	     -4.28250437	    -33.12715062	    -12.94957815	     -1.69863682	     11.47930348	      4.55651283	    -10.59057837	     -4.27907219	    -12.55928397	    -21.32746931	      9.69384491	     -5.28976580	     11.81353213	    -14.30985072	     16.55620833	     32.14704821
      1.80000000	      7.96515816	     -4.40601935	     11.56877030	      0.06264461	      0.99285229	     -0.00253162	     16.34302459	     -4.43596202	    -33.71500760	    -11.80506541	     -1.73754245	     12.42740495	      4.44962622	    -10.77756342	     -4.23713533	    -12.42314765	    -21.52508715	      9.98652727	     -5.08477585	     11.89451011	    -14.16311454	     16.39030270	     31.98307016
      1.80500000	      7.82369964	     -4.20588614	     11.81906912	      0.06885672	      0.99133532	     -0.00233100	     16.62760181	     -4.60348112	    -34.25834168	    -10.75653945	     -1.53462490	     13.41981969	      2.77707057	    -10.94669401	     -4.18108885	    -12.24783119	    -21.69491383	     10.15431816	     -5.00281910	     12.60693508	    -13.99520801	     16.22530629	     31.82823616
      1.81000000	      7.68772499	     -4.02527378	     12.05870776	      0.07511744	      0.98982619	     -0.00206966	     16.89789711	     -4.73999362	    -34.75357243	     -9.73664226	     -1.56461141	     14.27584911	      2.69441467	    -11.12398200	     -4.15753614	    -12.11923924	    -21.87412799	     10.41121345	     -4.78650717	     12.69818334	    -13.83403840	     16.07786022	     31.69331631
      1.81500000	      7.54758630	     -3.84436327	     12.30110135	      0.08140031	      0.98832071	     -0.00183290	     17.16830040	     -4.88835697	    -35.20798082	     -8.80513236	     -1.55459747	     15.08360002	      2.55069249	    -11.30392467	     -4.13019358	    -11.96396195	    -22.04037145	     10.64084755	     -4.61909242	     12.83890837	    -13.66740087	     15.93638408	     31.55154909
      1.82000000	      7.42278850	     -3.66032523	     12.53981971	      0.08768052	      0.98684220	     -0.00159287	     17.42166691	     -5.04570118	    -35.59771762	     -7.99148790	     -1.23950159	     15.86432599	      0.59190888	    -11.50523023	     -4.09977055	    -11.79629587	    -22.18693851	     10.71470594	     -4.61375723	     14.04666504	    -13.52800860	     15.79663172	     31.41825035
      1.82500000	      7.28924173	     -3.50802774	     12.77417672	      0.09404407	      0.98537289	     -0.00131120	     17.67817491	     -5.17276124	    -35.93246819	     -7.23888690	     -1.22678864	     16.43917490	      0.51510116	    -11.70124254	     -4.11415925	    -11.66832252	    -22.33768814	     10.92927892	     -4.38007019	     14.11390026	    -13.36762812	     15.68525511	     31.27860351
      1.83000000	      7.17399621	     -3.35762098	     13.02067855	      0.10045105	      0.98394927	     -0.00107488	     17.90671557	     -5.31354000	    -36.24108981	     -6.60095712	     -1.16044032	     16.95901920	      0.39551860	    -11.91941795	     -4.13396663	    -11.50489234	    -22.48449617	     11.11536177	     -4.20824787	     14.23382668	    -13.22098380	     15.59277383	     31.14000946
      1.83500000	      7.06988032	     -3.22431052	     13.27165524	      0.10689936	      0.98255820	     -0.00084120	     18.12216690	     -5.44905265	    -36.51077595	     -6.08455414	     -1.06322229	     17.35973585	      0.22656064	    -12.15073316	     -4.17838737	    -11.33675468	    -22.62312673	     11.27026423	     -4.04326907	     14.41863639	    -13.08589274	     15.52416718	     31.00342042
      1.84000000	      6.98443988	     -3.08777107	     13.50829517	      0.11338090	      0.98122205	     -0.00061162	     18.31737619	     -5.59767497	    -36.68907033	     -5.71211493	     -0.73910478	     17.64742553	     -1.27267097	    -12.41231542	     -4.21868552	    -11.17302888	    -22.73358939	     11.24023778	     -4.04077782	     15.79147946	    -12.97673370	     15.46029467	     30.88157479
      1.84500000	      6.90076384	     -2.98039619	     13.75900110	      0.11995191	      0.97991836	     -0.00037738	     18.50071697	     -5.72893372	    -36.84743545	     -5.43392713	     -0.65810435	     17.74934910	     -1.31472594	    -12.67327533	     -4.30389984	    -11.00790715	    -22.85811326	     11.37331101	     -3.83011162	     15.85097750	    -12.85147343	     15.42752926	     30.73438109
      1.85000000	      6.84768027	     -2.86590400	     14.00358363	      0.12657021	      0.97867561	     -0.00017001	     18.64901674	     -5.87828358	    -36.96235561	     -5.29586441	     -0.54863781	     17.75973415	     -1.33740265	    -12.97307232	     -4.38673450	    -10.84242369	    -22.97844096	     11.47246740	     -3.66553419	     15.93908517	    -12.76260282	     15.40190403	     30.59807342
      1.85500000	      6.78841009	     -2.80002243	     14.27955707	      0.13326291	      0.97745775	     -0.00000017	     18.79330943	     -6.00187141	    -37.08745851	     -5.26734592	     -0.46654451	     17.72394120	     -1.38373657	    -13.25176521	     -4.53217013	    -10.63736702	    -23.10229221	     11.55076015	     -3.47172304	     16.15912187	    -12.64281000	     15.44194089	     30.46207889
